<svg xmlns="http://www.w3.org/2000/svg" width="1600" height="900" viewBox="0 0 1600 900"><rect width="100%" height="100%" fill="#F8FAFC"/><style>.title{font:700 34px Helvetica,Arial,sans-serif; fill:#0F172A;}.section{font:700 20px Helvetica,Arial,sans-serif; fill:#0F172A;}.label{font:400 13px Helvetica,Arial,sans-serif; fill:#475569;}.box1{font:700 16px Helvetica,Arial,sans-serif; fill:#0F172A;}.box2{font:400 13px Helvetica,Arial,sans-serif; fill:#334155;}</style><defs><marker id="arrow" markerWidth="10" markerHeight="10" refX="8" refY="3" orient="auto" markerUnits="strokeWidth"><path d="M0,0 L0,6 L9,3 z" fill="#64748B"/></marker><marker id="arrowLight" markerWidth="10" markerHeight="10" refX="8" refY="3" orient="auto" markerUnits="strokeWidth"><path d="M0,0 L0,6 L9,3 z" fill="#94A3B8"/></marker></defs><text x="800" y="62" text-anchor="middle" class="title">Enterprise AI Platform</text><text x="800" y="92" text-anchor="middle" class="label">Scalable data ingestion → feature engineering → model training → deployment → monitoring</text><rect x="365" y="108" width="860" height="130" rx="18" ry="18" fill="white" fill-opacity="0.55" stroke="#CBD5E1" stroke-width="1.8" stroke-dasharray="7 7"/><text x="795" y="126" text-anchor="middle" class="section">Cross-cutting controls</text><rect x="410" y="130" width="250" height="86" rx="18" ry="18" fill="#FFFFFF" stroke="#CBD5E1" stroke-width="1.6"/><text x="535.0" y="164" text-anchor="middle" class="box1" font-size="15">Governance</text><text x="535.0" y="188" text-anchor="middle" class="box2">Catalog • Policies • Lineage</text><rect x="690" y="130" width="210" height="86" rx="18" ry="18" fill="#FFFFFF" stroke="#CBD5E1" stroke-width="1.6"/><text x="795.0" y="164" text-anchor="middle" class="box1" font-size="15">CI/CD</text><text x="795.0" y="188" text-anchor="middle" class="box2">Tests • IaC • Promotion</text><rect x="930" y="130" width="260" height="86" rx="18" ry="18" fill="#FFFFFF" stroke="#CBD5E1" stroke-width="1.6"/><text x="1060.0" y="164" text-anchor="middle" class="box1" font-size="15">Security</text><text x="1060.0" y="188" text-anchor="middle" class="box2">Secrets • RBAC • Encryption</text><rect x="40" y="300" width="1520" height="360" rx="22" ry="22" fill="#FFFFFF" fill-opacity="0.4" stroke="#94A3B8" stroke-width="1.8" stroke-dasharray="7 7"/><text x="800" y="286" text-anchor="middle" class="section" font-size="24">Reference architecture</text><line x1="270" y1="406" x2="298" y2="406" stroke="#64748B" stroke-width="3" marker-end="url(#arrow)"/><line x1="550" y1="406" x2="578" y2="406" stroke="#64748B" stroke-width="3" marker-end="url(#arrow)"/><line x1="760" y1="406" x2="788" y2="406" stroke="#64748B" stroke-width="3" marker-end="url(#arrow)"/><line x1="1060" y1="406" x2="1088" y2="406" stroke="#64748B" stroke-width="3" marker-end="url(#arrow)"/><line x1="1320" y1="406" x2="1348" y2="406" stroke="#64748B" stroke-width="3" marker-end="url(#arrow)"/><line x1="1470" y1="452" x2="1470" y2="508" stroke="#64748B" stroke-width="3" marker-end="url(#arrow)"/><line x1="1360" y1="566" x2="1332" y2="566" stroke="#64748B" stroke-width="3" marker-end="url(#arrow)"/><line x1="1100" y1="566" x2="1072" y2="566" stroke="#64748B" stroke-width="3" marker-end="url(#arrow)"/><path d="M 535 216 L 535 272 L 930 272 L 930 348" fill="none" stroke="#CBD5E1" stroke-width="2" stroke-dasharray="7 7" marker-end="url(#arrowLight)"/><path d="M 795 216 L 795 246 L 1470 246 L 1470 348" fill="none" stroke="#CBD5E1" stroke-width="2" stroke-dasharray="7 7" marker-end="url(#arrowLight)"/><path d="M 1060 216 L 1060 246 L 1210 246 L 1210 508" fill="none" stroke="#CBD5E1" stroke-width="2" stroke-dasharray="7 7" marker-end="url(#arrowLight)"/><path d="M 800 566 L 650 566 L 650 640 L 1470 640 L 1470 452" fill="none" stroke="#94A3B8" stroke-width="3" marker-end="url(#arrowLight)"/><text x="1040" y="628" text-anchor="middle" class="label">monitoring feedback loop to retraining</text><rect x="70" y="360" width="200" height="92" rx="18" ry="18" fill="#E0F2FE" stroke="#38BDF8" stroke-width="2"/><text x="170.0" y="394" text-anchor="middle" class="box1">Data Sources</text><text x="170.0" y="419" text-anchor="middle" class="box2">APIs • Files • CDC • SaaS</text><rect x="310" y="360" width="240" height="92" rx="18" ry="18" fill="#DBEAFE" stroke="#60A5FA" stroke-width="2"/><text x="430.0" y="394" text-anchor="middle" class="box1">Ingestion &amp; Orchestration</text><text x="430.0" y="419" text-anchor="middle" class="box2">Batch / Streaming Jobs</text><rect x="590" y="360" width="170" height="92" rx="18" ry="18" fill="#EDE9FE" stroke="#A78BFA" stroke-width="2"/><text x="675.0" y="394" text-anchor="middle" class="box1">Raw Zone</text><text x="675.0" y="419" text-anchor="middle" class="box2">Landing / Audit</text><rect x="800" y="360" width="260" height="92" rx="18" ry="18" fill="#F3E8FF" stroke="#C084FC" stroke-width="2"/><text x="930.0" y="394" text-anchor="middle" class="box1">Curated Zone</text><text x="930.0" y="419" text-anchor="middle" class="box2">Quality Rules • Standardization</text><rect x="1100" y="360" width="220" height="92" rx="18" ry="18" fill="#FAE8FF" stroke="#E879F9" stroke-width="2"/><text x="1210.0" y="394" text-anchor="middle" class="box1">Feature Store</text><text x="1210.0" y="419" text-anchor="middle" class="box2">Training / Serving Features</text><rect x="1360" y="360" width="220" height="92" rx="18" ry="18" fill="#DCFCE7" stroke="#4ADE80" stroke-width="2"/><text x="1470.0" y="394" text-anchor="middle" class="box1">Model Training</text><text x="1470.0" y="419" text-anchor="middle" class="box2">Experiments • Validation</text><rect x="1360" y="520" width="220" height="92" rx="18" ry="18" fill="#D1FAE5" stroke="#34D399" stroke-width="2"/><text x="1470.0" y="554" text-anchor="middle" class="box1">Model Registry</text><text x="1470.0" y="579" text-anchor="middle" class="box2">Versioning • Approval</text><rect x="1100" y="520" width="220" height="92" rx="18" ry="18" fill="#ECFCCB" stroke="#84CC16" stroke-width="2"/><text x="1210.0" y="554" text-anchor="middle" class="box1">Batch / API Scoring</text><text x="1210.0" y="579" text-anchor="middle" class="box2">Jobs • Endpoints</text><rect x="800" y="520" width="260" height="92" rx="18" ry="18" fill="#FEF3C7" stroke="#F59E0B" stroke-width="2"/><text x="930.0" y="554" text-anchor="middle" class="box1">Monitoring &amp; Ops</text><text x="930.0" y="579" text-anchor="middle" class="box2">Drift • SLAs • Alerts</text><line x1="930" y1="612" x2="930" y2="710" stroke="#64748B" stroke-width="3" marker-end="url(#arrow)"/><line x1="1210" y1="612" x2="1210" y2="710" stroke="#64748B" stroke-width="3" marker-end="url(#arrow)"/><rect x="1060" y="720" width="300" height="92" rx="18" ry="18" fill="#FEE2E2" stroke="#F87171" stroke-width="2"/><text x="1210" y="754" text-anchor="middle" class="box1">Consumers</text><text x="1210" y="779" text-anchor="middle" class="box2">BI • Apps • Ops Teams</text><text x="90" y="854" class="label">Synthetic data • open frameworks • cloud-neutral templates • no proprietary code</text></svg>